<svg width="26" height="26" viewBox="0 0 26 26" fill="none" xmlns="http://www.w3.org/2000/svg">
<path d="M17.875 0H8.125C3.63838 0 0 3.63838 0 8.125V17.875C0 22.3616 3.63838 26 8.125 26H17.875C22.3616 26 26 22.3616 26 17.875V8.125C26 3.63838 22.3616 0 17.875 0ZM23.5625 17.875C23.5625 21.0112 21.0112 23.5625 17.875 23.5625H8.125C4.98875 23.5625 2.4375 21.0112 2.4375 17.875V8.125C2.4375 4.98875 4.98875 2.4375 8.125 2.4375H17.875C21.0112 2.4375 23.5625 4.98875 23.5625 8.125V17.875Z" fill="#D1A954"/>
</svg>
