<!-- Generated by IcoMoon.io -->
<svg version="1.1" xmlns="http://www.w3.org/2000/svg" width="591" height="1024" viewBox="0 0 591 1024">
<title></title>
<g id="icomoon-ignore">
</g>
<path d="M568.521 0.213l-141.698-0.213c-159.193 0-262.070 98.913-262.070 252.008v116.192h-142.472c-12.311 0-22.281 9.353-22.281 20.891v168.351c0 11.536 9.981 20.878 22.281 20.878h142.472v424.799c0 11.54 9.969 20.882 22.281 20.882h185.885c12.311 0 22.279-9.354 22.279-20.882v-424.799h166.585c12.312 0 22.28-9.342 22.28-20.878l0.067-168.351c0-5.539-2.351-10.845-6.522-14.765-4.175-3.92-9.858-6.125-15.77-6.125h-166.64v-98.498c0-47.342 12.040-71.375 77.848-71.375l95.456-0.032c12.3 0 22.268-9.353 22.268-20.88v-156.323c0-11.516-9.956-20.859-22.248-20.88z"></path>
</svg>
